<svg width="295" height="252" viewBox="0 0 295 252" fill="none" xmlns="http://www.w3.org/2000/svg">
<path d="M183.25 194.274C179.753 197.927 172.246 212.761 165.704 226.477C158.583 227.025 152.199 230.146 147.501 234.9C143.05 239.405 140.111 245.369 139.497 251.999H109.074C109.074 251.999 112.109 240.947 112.828 230.144C113.17 225.01 112.993 219.932 111.713 216.125C107.741 204.304 83.4721 186.724 79.8427 184.755C76.2139 182.785 58.9878 179.579 56.133 177.847C53.2775 176.116 57.8073 172.432 66.0557 169.053C74.3047 165.67 92.4172 174.236 92.4172 174.236C92.4172 174.236 87.0376 168.337 82.046 162.557C77.0551 156.775 59.6307 144.609 59.7218 142.943C59.813 141.275 63.9282 136.191 70.5955 136.559C77.262 136.926 92.1237 149.148 92.1237 149.148C92.1237 149.148 83.7542 111.815 81.5888 106.485C79.4241 101.154 83.2631 101.072 83.2631 101.072C83.2631 101.072 90.7383 97.4504 97.6291 108.055C104.519 118.661 104.718 145.417 108.419 138.934C112.119 132.451 105.724 89.1841 105.724 89.1841C105.724 89.1841 111.103 89.4017 113.838 91.5185C116.574 93.6353 125.688 103.155 125.688 117.97C125.688 132.502 127.018 135.499 127.018 155.993C127.018 180.189 151.032 184.734 161.875 177.072C172.72 169.408 172.624 153.277 167.337 145.712C162.05 138.143 164.532 128.743 167.901 124.701C171.27 120.658 172.184 127.296 176.071 135.277C179.958 143.259 190.125 151.487 190.588 160.953C191.052 170.417 190.135 187.083 183.25 194.274Z" fill="#FFD2BB"/>
<path d="M206.73 97.3619C210.656 93.9155 218.424 87.6828 221.355 89.5148C225.662 92.2066 219.691 95.1712 219.691 95.1712C219.691 95.1712 222.571 95.2737 222.221 97.6667C221.837 100.29 218.272 101.77 215.617 102.517C216.309 102.671 217.005 102.764 217.695 102.764C221.082 102.764 224.23 101.726 226.832 99.9492C226.492 108.454 219.478 115.247 210.874 115.247C203.065 115.247 196.573 109.655 195.184 102.268L190.577 99.8288C190.577 99.8288 195.069 97.9655 195.111 97.8098C195.787 95.3276 198.049 93.5003 200.746 93.5003C201.684 93.5003 202.569 93.7199 203.355 94.1125C204.43 94.6522 205.309 95.5166 205.879 96.572C205.885 96.5774 205.89 96.582 205.895 96.5873C206.159 96.8422 206.441 97.1017 206.73 97.3619ZM53.0781 78.755C53.4175 87.2596 60.4321 94.0533 69.0358 94.0533C76.8443 94.0533 83.3372 88.4607 84.7261 81.0735L89.3324 78.6346C89.3324 78.6346 84.8412 76.7713 84.7986 76.6156C84.1225 74.1334 81.8606 72.306 79.1641 72.306C78.2258 72.306 77.3408 72.5256 76.5549 72.9183C75.4795 73.4579 74.6004 74.3224 74.0308 75.3778C74.0248 75.3831 74.0195 75.3878 74.0148 75.3931C73.7506 75.6473 73.4685 75.9062 73.179 76.167C69.2528 72.7206 61.4855 66.4879 58.5542 68.3199C54.2467 71.0117 60.2178 73.9763 60.2178 73.9763C60.2178 73.9763 57.3377 74.0788 57.6884 76.4718C58.0724 79.0951 61.6373 80.575 64.2925 81.3217C63.5997 81.4761 62.9043 81.5692 62.2142 81.5692C58.8277 81.5699 55.6801 80.5311 53.0781 78.755Z" fill="#D7DF3F"/>
<path d="M37.1752 147.888V142.222C37.1752 141.449 37.8007 140.824 38.5733 140.824C39.3446 140.824 39.9695 141.448 39.9695 142.222V147.888C39.9695 148.661 39.3446 149.286 38.5733 149.286C37.8007 149.286 37.1752 148.661 37.1752 147.888ZM38.5733 169.83C39.3446 169.83 39.9695 169.205 39.9695 168.434V162.767C39.9695 161.995 39.3446 161.369 38.5733 161.369C37.8007 161.369 37.1752 161.995 37.1752 162.767V168.434C37.1752 169.204 37.8007 169.83 38.5733 169.83ZM44.6137 155.328C44.6137 156.099 45.2386 156.724 46.0119 156.724H51.6796C52.4508 156.724 53.0777 156.1 53.0777 155.328C53.0777 154.555 52.4508 153.93 51.6796 153.93H46.0119C45.2386 153.93 44.6137 154.555 44.6137 155.328ZM25.4664 156.724H31.1342C31.9054 156.724 32.5323 156.1 32.5323 155.328C32.5323 154.555 31.9054 153.93 31.1342 153.93H25.4664C24.6952 153.93 24.0703 154.555 24.0703 155.328C24.0696 156.099 24.6952 156.724 25.4664 156.724ZM43.8351 151.466C44.1911 151.466 44.5492 151.327 44.822 151.054L48.8287 147.048C49.3751 146.502 49.3751 145.618 48.8287 145.07C48.2824 144.526 47.3987 144.526 46.8537 145.07L42.8456 149.079C42.3012 149.625 42.3012 150.509 42.8456 151.054C43.1184 151.327 43.4764 151.466 43.8351 151.466ZM32.3253 159.6L28.3186 163.606C27.7723 164.152 27.7723 165.037 28.3186 165.583C28.5901 165.857 28.9481 165.992 29.3062 165.992C29.6622 165.992 30.0202 165.857 30.2937 165.583L34.3004 161.575C34.8468 161.031 34.8468 160.147 34.3004 159.6C33.7561 159.054 32.8717 159.054 32.3253 159.6ZM46.8537 165.583C47.1272 165.856 47.4832 165.991 47.8412 165.991C48.1992 165.991 48.5552 165.856 48.8287 165.583C49.3751 165.037 49.3751 164.152 48.8287 163.606L44.822 159.599C44.2757 159.053 43.3913 159.053 42.8449 159.599C42.3006 160.145 42.3006 161.029 42.8449 161.573L46.8537 165.583ZM32.3253 151.054C32.5982 151.327 32.9569 151.466 33.3129 151.466C33.6709 151.466 34.0289 151.327 34.3004 151.054C34.8468 150.51 34.8468 149.626 34.3004 149.079L30.2937 145.071C29.7474 144.527 28.863 144.527 28.3186 145.071C27.7723 145.618 27.7723 146.502 28.3186 147.048L32.3253 151.054ZM229.2 147.938C229.965 147.938 230.587 147.317 230.587 146.549V140.922C230.587 140.154 229.965 139.533 229.2 139.533C228.432 139.533 227.811 140.154 227.811 140.922V146.549C227.811 147.317 228.432 147.938 229.2 147.938ZM229.2 168.347C229.965 168.347 230.587 167.725 230.587 166.96V161.33C230.587 160.564 229.965 159.942 229.2 159.942C228.432 159.942 227.811 160.564 227.811 161.33V166.96C227.811 167.726 228.432 168.347 229.2 168.347ZM235.199 153.941C235.199 154.707 235.821 155.327 236.588 155.327H242.219C242.985 155.327 243.607 154.707 243.607 153.941C243.607 153.173 242.985 152.552 242.219 152.552H236.588C235.821 152.552 235.199 153.173 235.199 153.941ZM223.197 153.941C223.197 153.173 222.574 152.552 221.808 152.552H216.179C215.413 152.552 214.791 153.173 214.791 153.941C214.791 154.707 215.413 155.327 216.179 155.327H221.808C222.575 155.327 223.197 154.707 223.197 153.941ZM234.426 150.103C234.779 150.103 235.135 149.966 235.407 149.695L239.387 145.716C239.929 145.173 239.929 144.295 239.387 143.752C238.844 143.211 237.966 143.211 237.425 143.752L233.443 147.734C232.902 148.276 232.902 149.155 233.443 149.695C233.714 149.966 234.07 150.103 234.426 150.103ZM219.994 164.534C220.348 164.534 220.703 164.4 220.974 164.128L224.955 160.146C225.496 159.606 225.496 158.727 224.955 158.185C224.414 157.643 223.535 157.643 222.993 158.185L219.013 162.164C218.471 162.707 218.471 163.586 219.013 164.128C219.282 164.4 219.638 164.534 219.994 164.534ZM237.425 164.128C237.696 164.4 238.05 164.534 238.406 164.534C238.762 164.534 239.115 164.4 239.388 164.128C239.929 163.586 239.929 162.707 239.388 162.164L235.408 158.185C234.865 157.643 233.986 157.643 233.444 158.185C232.903 158.727 232.903 159.606 233.444 160.146L237.425 164.128ZM224.955 147.734L220.974 143.752C220.433 143.211 219.554 143.211 219.013 143.752C218.471 144.295 218.471 145.173 219.013 145.716L222.993 149.695C223.264 149.966 223.62 150.103 223.974 150.103C224.33 150.103 224.685 149.966 224.955 149.695C225.496 149.155 225.496 148.276 224.955 147.734Z" fill="#FBC02D"/>
<path d="M110.253 231.793C111.079 231.199 111.94 230.651 112.828 230.145C112.108 240.947 109.074 251.999 109.074 251.999H0.748673C0.614915 251.112 0.524414 250.205 0.524414 249.281C0.524414 239.109 8.88525 230.861 19.1952 230.861C19.7569 230.861 20.3065 230.896 20.8522 230.943C19.8008 228.086 19.1952 225.017 19.1952 221.8C19.1952 207 31.3578 195.001 46.3619 195.001C60.5622 195.001 72.2017 205.757 73.4069 219.457C76.4547 212.713 83.2936 208.001 91.2612 208.001C102.058 208.001 110.81 216.636 110.81 227.287C110.81 228.841 110.605 230.345 110.253 231.793ZM144.505 153.209V161.766C144.505 164.341 148.498 164.341 148.498 161.766V154.789C150.003 155.331 151.447 155.952 152.814 156.836C154.984 158.237 156.984 154.779 154.829 153.387C152.828 152.094 150.612 151.275 148.364 150.524C147.972 150.394 147.622 150.393 147.311 150.468C145.144 147.68 142.694 145.159 140.202 142.663C141.28 140.451 142.52 138.295 143.968 136.16H152.626C153.767 137.533 154.831 138.953 155.825 140.416C155.825 140.435 155.818 140.452 155.818 140.472C155.795 141.902 155.36 143.215 154.145 144.071C153.259 144.698 152.843 145.804 153.429 146.802C153.943 147.681 155.27 148.147 156.16 147.519C157.188 146.793 157.982 145.927 158.574 144.952C159.597 146.884 160.484 148.891 161.214 150.984C162.056 153.399 165.914 152.36 165.063 149.922C163.042 144.12 159.977 138.957 156.151 134.203V68.0186C168.458 64.883 174.941 54.0606 180.167 42.9907C181.261 40.6762 177.819 38.6486 176.72 40.9757C172.074 50.8145 166.696 60.5382 156.151 63.8508V46.6733C159.131 40.621 161.55 33.985 161.142 27.3431C160.985 24.7857 156.992 24.7704 157.149 27.3431C157.558 34.007 154.817 40.6396 151.728 46.5882H145.349C140.407 41.2053 136.793 34.9393 137.186 27.3431C137.32 24.7684 133.326 24.7817 133.193 27.3431C132.791 35.081 136.085 41.7689 140.845 47.4905V63.5155C129.489 61.0832 122.53 49.6892 118.482 39.4558C117.547 37.0907 113.684 38.1202 114.632 40.5172C119.401 52.574 127.484 65.0713 140.846 67.5528V133.672C136.363 140.143 133.63 146.828 131.934 154.58C131.385 157.089 135.234 158.156 135.784 155.642C136.483 152.443 137.376 149.459 138.491 146.593C140.463 148.567 142.42 150.575 144.113 152.791C144.231 152.947 144.365 153.086 144.505 153.209ZM172.735 59.8375C171.242 64.2967 172.059 69.2431 175.327 72.7281C178.595 76.2124 183.479 77.3457 188.024 76.1432C189.518 71.684 188.699 66.7376 185.432 63.2533C182.165 59.7683 177.28 58.6343 172.735 59.8375ZM205.667 55.9246C204.19 51.46 200.574 47.989 195.869 47.1565C191.165 46.324 186.576 48.3417 183.657 52.0283C185.134 56.4929 188.75 59.9632 193.454 60.7964C198.158 61.6289 202.748 59.6112 205.667 55.9246ZM188.131 40.1199C191.803 43.0572 196.729 43.9929 201.124 42.1256C205.521 40.2583 208.267 36.0639 208.704 31.3817C205.031 28.4444 200.106 27.5088 195.71 29.376C191.312 31.244 188.566 35.4384 188.131 40.1199ZM191.506 26.2417C193.12 21.7466 191.905 16.882 188.765 13.3824C184.115 14.0845 180.083 17.0657 178.47 21.5609C176.855 26.0567 178.069 30.9206 181.211 34.4202C185.862 33.7182 189.892 30.7376 191.506 26.2417ZM111.72 63.2526C108.453 66.737 107.635 71.6833 109.127 76.1426C113.673 77.3457 118.557 76.2118 121.824 72.7274C125.092 69.2431 125.91 64.2967 124.417 59.8368C119.871 58.6343 114.987 59.7683 111.72 63.2526ZM101.282 47.1565C96.5795 47.989 92.9614 51.4593 91.4847 55.9246C94.4041 59.6112 98.9931 61.6289 103.697 60.7964C108.401 59.9639 112.019 56.4935 113.495 52.0283C110.575 48.3417 105.986 46.324 101.282 47.1565ZM96.0278 42.1263C100.424 43.9935 105.35 43.0579 109.022 40.1206C108.586 35.4384 105.839 31.2447 101.442 29.3767C97.046 27.5094 92.1203 28.4457 88.4476 31.3824C88.8841 36.0639 91.6305 40.259 96.0278 42.1263ZM115.941 34.4202C119.083 30.9206 120.296 26.0567 118.683 21.5609C117.069 17.0657 113.038 14.0851 108.387 13.3824C105.246 16.8814 104.031 21.7459 105.646 26.2417C107.26 30.7376 111.29 33.7182 115.941 34.4202ZM147.685 24.5561C151.773 22.2303 154.465 18.0007 154.356 13.2254C154.247 8.45068 151.367 4.34745 147.178 2.20933C143.091 4.53445 140.4 8.76477 140.508 13.5401C140.616 18.3154 143.496 22.4187 147.685 24.5561ZM173.983 13.0776C176.067 8.78075 175.378 3.81441 172.628 0C167.93 0.201634 163.603 2.7357 161.519 7.03324C159.435 11.3308 160.123 16.2964 162.873 20.1115C167.572 19.9099 171.898 17.3758 173.983 13.0776ZM132.009 20.1122C134.76 16.2971 135.448 11.3315 133.363 7.03391C131.278 2.73637 126.952 0.202304 122.254 0.000670171C119.504 3.81508 118.815 8.78141 120.9 13.0783C122.985 17.3758 127.31 19.9099 132.009 20.1122ZM275.806 230.862C275.245 230.862 274.695 230.897 274.149 230.944C275.201 228.087 275.806 225.017 275.806 221.801C275.806 207.001 263.644 195.002 248.64 195.002C234.44 195.002 222.8 205.758 221.595 219.458C218.547 212.714 211.708 208.002 203.74 208.002C192.943 208.002 184.191 216.637 184.191 227.288C184.191 228.841 184.397 230.346 184.749 231.794C180.029 228.404 174.242 226.383 167.959 226.383C167.199 226.383 166.449 226.42 165.703 226.478C158.583 227.026 152.199 230.147 147.5 234.901C143.05 239.406 140.111 245.37 139.497 252H153.935H155.503H294.253C294.387 251.113 294.477 250.206 294.477 249.282C294.477 239.109 286.116 230.862 275.806 230.862Z" fill="#0F1E11"/>
</svg>
