<svg width="251" height="230" viewBox="0 0 251 230" fill="none" xmlns="http://www.w3.org/2000/svg">
<path d="M52.0969 178.97C51.7028 179.048 51.3093 179.131 50.9165 179.217L53.3471 178.092L53.2916 178.387C53.2597 178.395 53.2264 178.402 53.199 178.412C52.7996 178.552 52.4323 178.742 52.0969 178.97ZM56.6351 226.583C54.0936 227.151 48.4846 226.2 47.6188 223.197C47.4328 222.554 47.3154 221.839 47.6318 221.2C47.7564 220.948 45.9745 219.199 45.8348 218.985C44.5514 217.023 43.6633 214.966 43.4147 212.652C37.8384 211.632 36.0557 202.563 36.8003 197.951C36.8185 197.839 36.8662 197.738 36.9347 197.648C37.5917 191.566 41.157 183.806 47.5887 183.967C56.0204 184.178 49.3753 193.78 46.6087 198.467C48.193 197.35 49.8236 196.3 51.511 195.351C51.7883 195.196 52.0897 195.029 52.4062 194.859L53.1846 194.298L53.8352 194.135C54.8681 193.646 55.995 193.196 57.1205 192.919C57.0683 192.867 57.0253 192.807 57.0031 192.731C56.2338 190.08 55.1819 187.523 54.4133 184.871C54.382 184.762 54.3989 184.66 54.4453 184.564C53.8202 184.564 53.1951 184.564 52.5693 184.564C52.3442 184.564 52.2809 184.518 52.3161 184.45C50.8558 184.335 49.7459 183.348 50.1707 181.733C50.3665 180.989 50.7208 180.326 51.1984 179.773C46.2231 180.788 41.2105 182.49 37.7686 186.144C32.9531 191.258 32.6138 198.526 33.7093 205.154C34.8447 212.019 37.4397 219.438 42.6637 224.301C44.5683 226.074 46.7633 227.708 49.1802 228.787C52.8675 229.807 56.6716 229.84 58.9691 229.51C59.0213 229.503 59.0735 229.487 59.1257 229.478C61.6013 228.648 63.7911 227.037 65.7036 224.824C65.2318 223.156 64.7607 221.488 64.2896 219.819C62.349 222.887 58.513 226.162 56.6351 226.583ZM187.112 185.667C186.535 187.708 185.957 189.748 185.382 191.788C186.121 192.118 186.844 192.493 187.544 192.886C188.811 193.6 190.047 194.371 191.255 195.183C189.169 192.153 186.451 188.418 187.262 185.927L187.112 185.667ZM172.293 145.478C171.713 145.269 171.11 145.108 170.49 144.998C171.114 145.149 171.717 145.308 172.293 145.478ZM108.602 95.135C109.261 95.4945 109.962 95.809 110.705 96.07L108.602 95.135ZM205.335 203.175C203.612 216.286 190.721 234.944 176.212 224.311C176.674 223.428 177.136 222.548 177.597 221.667C178.305 222.379 178.971 222.955 179.467 223.304C182.876 225.706 193.096 223.989 191.14 218.655C193.573 216.694 195.123 213.497 195.472 210.408C200.962 209.09 202.837 200.655 202.07 195.879C202.055 195.786 202.017 195.71 201.97 195.646C201.332 189.841 197.416 182.411 191.106 183.464C191.697 182.865 192.007 182.037 191.985 181.037C191.947 179.384 190.781 178.265 189.143 178.386C188.886 178.405 188.59 178.464 188.324 178.575C187.988 178.561 187.636 178.565 187.281 178.584C186.291 178.584 185.3 178.584 184.31 178.584C184.494 178.449 184.615 178.261 184.604 178.03C184.448 174.619 185.245 168.373 180.495 168.007C180.109 167.977 179.719 167.973 179.323 167.987C178.822 163.361 179.648 158.586 179.471 153.943C179.385 151.719 179.119 149.309 177.832 147.432C176.528 145.528 173.278 144.798 171.153 144.304C169.204 143.85 167.225 143.92 165.377 144.407C165.173 144.455 164.97 144.513 164.771 144.583C161.95 145.482 159.496 147.369 158.006 149.849C157.327 147.732 156.214 145.748 154.805 144.083C152.96 141.903 148.502 140.571 149.077 137.273C149.77 133.301 150.116 127.677 154.709 126.525C155.086 126.43 155.783 125.94 155.406 125.48C152.156 121.522 145.116 120.544 140.866 123.299C140.601 123.471 140.413 123.845 140.623 124.128C142.193 126.254 142.608 128.982 142.561 131.565C142.495 135.25 140.381 136.852 137.311 138.284C133.37 140.122 129.507 141.749 127.28 145.507C125.269 144.07 122.884 142.998 120.565 142.211C115.905 140.63 110.891 140.315 106.191 141.861C100.153 143.849 96.9944 149.532 95.4923 155.343C95.4754 155.334 95.4584 155.327 95.4414 155.318C95.4617 154.896 94.6897 154.807 94.1482 155.001C93.5146 155.146 92.8295 155.598 93.2653 155.891C92.0145 157.543 90.8798 159.29 89.7986 161.082C86.3233 156.113 84.1883 150.313 81.1203 145.091C82.0599 144.539 81.1633 143.657 80.2648 144.001C79.7246 143.875 78.8124 144.24 78.7765 144.72C72.7852 147.668 66.8741 150.916 60.7641 153.652C62.0404 147.913 62.0606 142.032 62.2094 136.181C62.3595 130.257 62.4639 123.632 65.96 118.578C73.302 107.963 87.2545 104.84 97.3206 97.6439C97.6684 97.3953 97.7271 97.1486 97.6267 96.9496C97.6273 96.9431 97.6306 96.9366 97.6306 96.93C97.6573 95.4208 97.9594 93.982 98.7183 92.6672C98.9982 92.1824 99.3264 91.8405 99.6866 91.5958C100.352 91.3779 101.06 91.2506 101.682 91.1802C101.945 91.2161 102.218 91.2839 102.494 91.3681C105.164 97.1003 112.311 98.1972 117.978 98.0739C120.066 98.0289 122.379 97.7555 124.629 97.1741C125.513 97.1493 126.478 96.7845 127.419 96.2612C129.976 95.2394 132.265 93.7269 133.811 91.5873C134.925 91.4105 136.128 91.4595 136.944 92.3338C137.929 93.3896 137.733 95.1174 137.493 96.4054C137.412 96.8419 137.87 96.9822 138.358 96.915C148.51 104.05 162.563 102.673 172.199 110.518C176.392 113.931 180.37 119.059 181.658 124.382C182.339 127.199 182.737 130.098 183.191 132.959C184.575 141.67 185.792 150.407 187.128 159.126C187.964 164.582 188.331 170.79 190.053 176.173C188.899 175.929 187.752 175.728 186.638 175.564C185.741 175.432 184.697 176.699 185.97 176.885C187.532 177.116 189.095 177.41 190.625 177.798C190.639 177.836 190.652 177.874 190.667 177.912C190.777 178.192 191.254 178.207 191.704 178.091C195.499 179.192 199.031 180.969 201.726 184.045C206.13 189.073 206.154 196.942 205.335 203.175ZM131.693 96.3004C128.906 100.446 123.262 101.652 118.587 102.068C112.945 102.57 108.076 101.316 103.871 97.4697C103.386 97.0266 101.614 97.747 102.114 98.2037C106.988 102.663 112.588 103.602 119.031 103.03C124.155 102.574 130.431 100.82 133.452 96.3291C133.932 95.6133 132.03 95.7992 131.693 96.3004ZM147.866 100.036C149.065 100.454 150.286 100.829 151.522 101.175L147.866 100.036ZM109.991 141.739C109.314 141.811 108.645 141.93 107.986 142.105C108.655 141.96 109.324 141.837 109.991 141.739Z" fill="#0F1E11"/>
<path d="M120.16 61.7653C119.996 61.6968 121.434 60.917 121.944 61.1304C122.754 61.4697 123.602 61.6928 124.44 61.9454C126.029 57.6904 125.531 52.6707 121.9 49.585C121.64 49.3638 123.304 48.6278 123.684 48.9501C127.689 52.3529 128.008 58.0232 125.898 62.5815C125.686 63.0396 124.49 63.2445 124.075 63.0703C122.803 62.5372 121.434 62.2984 120.16 61.7653ZM113.974 63.5955C115.887 64.9005 117.941 65.8421 120.309 65.7005C121.618 65.6222 120.998 66.708 120.056 66.7647C119.934 66.7719 119.819 66.7667 119.699 66.7706C118.054 68.8782 116.428 72.4859 113.154 71.774C110.478 71.192 111.645 65.8878 112.277 64.1737C112.464 63.6654 113.503 63.2752 113.974 63.5955ZM117.953 66.7008C116.469 66.5181 115.09 66.0339 113.757 65.3012C113.369 66.8737 113.191 68.7634 113.722 70.0619C114.374 71.6559 115.716 69.8733 116.263 69.1236C116.844 68.3301 117.346 67.4753 117.953 66.7008ZM113.365 49.521C113.386 49.8656 115.288 49.5367 115.255 49.0147C115.102 46.573 113.747 45.0957 111.249 45.6008C108.853 46.0856 106.961 47.925 106.417 50.3047C106.32 50.7275 108.175 50.4424 108.282 49.9726C108.615 48.5168 109.505 46.8973 110.963 46.3022C112.655 45.6106 113.301 48.5077 113.365 49.521ZM128.075 49.9719C128.407 48.5155 129.298 46.8967 130.755 46.3016C132.447 45.6099 133.093 48.5077 133.157 49.521C133.178 49.8656 135.08 49.5367 135.048 49.0147C134.894 46.573 133.538 45.0957 131.041 45.6008C128.644 46.0856 126.752 47.925 126.209 50.3047C126.113 50.7275 127.967 50.4417 128.075 49.9719ZM107.874 40.7755C108.801 39.2487 110.922 38.0246 112.732 38.4781C113.202 38.5962 113.739 38.5081 114.069 38.1198C114.335 37.8073 114.263 37.3068 113.822 37.1965C110.883 36.4592 107.615 37.9978 106.065 40.5537C105.515 41.4606 107.443 41.4874 107.874 40.7755ZM128.309 38.9081C129.955 38.7632 131.502 39.248 132.531 40.5896C133.055 41.2727 134.855 40.5302 134.261 39.757C132.882 37.9574 130.671 37.3303 128.478 37.5234C127.417 37.6167 127.019 39.0216 128.309 38.9081ZM120.344 101.223C125.468 100.767 131.744 99.0135 134.764 94.5223C135.245 93.8071 133.344 93.9931 133.007 94.4942C130.22 98.6402 124.576 99.846 119.901 100.262C114.259 100.763 109.39 99.5094 105.185 95.6635C104.7 95.2204 102.928 95.9408 103.428 96.3976C108.301 100.857 113.9 101.796 120.344 101.223ZM205.746 182.73C209.766 189.15 209.67 197.986 207.793 205.109C205.741 212.89 201.628 220.205 194.589 224.455C188.522 228.12 181.373 227.597 175.784 223.362C175.719 223.313 175.674 223.264 175.637 223.212C169.989 223.212 164.338 223.212 158.688 223.212C158.385 223.273 158.084 223.28 157.905 223.212C150.698 223.212 143.492 223.212 136.285 223.212C135.945 223.292 135.594 223.306 135.401 223.212C126.742 223.212 118.083 223.212 109.424 223.212C109.057 223.3 108.679 223.311 108.512 223.212C101.268 223.212 94.0247 223.212 86.7812 223.212C86.4067 223.31 86.0152 223.327 85.8371 223.212C80.0337 223.212 74.231 223.212 68.4283 223.212C63.616 228.522 56.2108 230.826 49.3869 227.897C40.7171 224.173 35.5649 215.643 33.6615 206.669C31.9977 198.823 31.6009 189.039 38.4646 183.456C42.4397 180.223 47.2656 178.497 52.2285 177.41C52.6214 177.324 53.0148 177.241 53.4089 177.163C53.7443 176.935 54.1117 176.745 54.5103 176.606C54.5378 176.596 54.571 176.589 54.603 176.581C54.8908 176.513 55.3521 176.524 55.538 176.77C55.9596 176.699 56.3798 176.631 56.8 176.565C53.3365 170.453 50.1353 164.225 48.3292 157.399C48.3161 157.352 48.3351 157.302 48.3775 157.252C48.3605 156.954 48.5804 156.627 49.1004 156.496C52.87 155.548 56.507 154.234 60.0677 152.722C60.039 152.639 60.0331 152.542 60.0606 152.426C61.5959 145.883 61.3838 139.187 61.6624 132.519C61.8797 127.314 62.1473 121.268 65.2258 116.817C72.8999 105.723 86.5379 102.532 97.0764 95.1167C97.1926 93.0652 97.8085 90.8297 99.5546 89.5913C100.911 88.6288 102.484 88.2909 104.054 88.4866C104.679 83.9928 104.055 79.5251 104 75.0111C104 74.9922 104.005 74.9752 104.007 74.9569C102.003 74.0402 107.047 77.6231 105.939 75.785C104.546 73.4725 104.784 91.248 104.054 88.4866C101.194 89.1469 100.189 89.1946 98.6326 90.4505C97.0763 91.7064 97.0235 98.6905 97.832 96.3976C98.5458 94.3715 86.3043 101.398 88.265 100.321C84.7461 95.4997 82.2274 40.1902 79.8099 34.6805C77.7852 30.0653 77.7421 24.1687 82.4355 21.0007C84.2077 19.8047 86.16 19.1763 88.2846 18.9734C89.8813 18.8207 91.5621 19.2742 92.1128 17.5444C93.4192 13.4382 93.7245 7.52524 98.1094 5.44702C100.717 4.21117 103.763 4.06892 106.544 4.82779C108.461 5.35044 110.271 6.14193 112.164 6.73179C115.166 7.66879 117.402 7.39017 120.147 5.86005C126.755 2.17601 132.672 -1.47866 140.392 1.25533C143.457 2.3411 146.333 4.17659 148.025 6.79639C148.373 7.20616 148.623 7.69032 148.799 8.22603C149.281 9.34181 149.562 10.5763 149.581 11.9309C149.642 16.2995 147.77 20.2836 145.203 23.7687C157.23 27.5532 156.502 91.357 152.832 99.373C153.649 99.1198 145.734 97.5131 146.654 97.9111C148.833 98.854 139.01 92.3357 139.667 94.5223C140.369 96.8537 138.803 87.9741 135.043 88.5956C132.693 90.7984 136.433 74.97 133.454 74.3638C132.849 77.6902 141.034 70.3751 138.585 72.45C137.505 73.3655 137.038 74.8342 136.077 73.8726C138 73.8726 135.057 74.7814 135.056 74.8617C135.001 79.4612 134.323 84.015 135.043 88.5956C136.606 88.3372 138.347 88.332 139.612 89.3773C140.989 90.5159 141.023 92.4251 140.764 94.0681C140.886 94.0766 140.995 94.1033 141.073 94.1601C143.549 95.9662 146.299 97.2301 149.176 98.2337C150.376 98.6526 151.597 99.0265 152.832 99.373C161.03 101.675 169.772 102.835 176.044 108.685C179.822 112.206 183.67 116.91 184.86 122.075C185.469 124.716 185.878 127.406 186.302 130.082C187.716 138.983 188.957 147.909 190.33 156.818C191.225 162.632 191.577 169.297 193.612 174.911C198.426 176.202 203.076 178.465 205.746 182.73ZM100.444 30.1847C99.9605 30.3596 99.6616 30.5084 99.6616 30.5084C99.6616 30.5084 99.6643 30.5443 99.6675 30.5971C99.924 30.4425 100.183 30.3074 100.444 30.1847ZM144.344 51.9281C144.221 52.1552 143.875 52.3164 143.515 52.3855C143.539 53.3558 143.543 54.3261 143.529 55.2944C144.583 54.4337 145.996 54.0409 147.497 54.2987C148.762 54.5159 147.656 55.6924 146.808 55.5469C145.131 55.2592 144.114 56.2836 143.755 57.877C143.715 58.0512 143.58 58.198 143.403 58.3129C143.353 58.9589 143.288 59.6035 143.205 60.2462C143.125 60.8602 143.036 61.5134 142.933 62.1855C143.011 62.1803 143.086 62.1816 143.152 62.1979C145.358 62.7101 148.954 63.3907 150.398 61.0129C151.384 59.3895 151.289 57.3419 150.757 55.5763C150.232 53.8328 149.332 52.028 147.884 50.8652C146.281 49.5791 145.251 50.2642 144.344 51.9281ZM80.5426 30.9351C80.4454 30.3498 80.3717 29.7665 80.3234 29.1877C80.3397 29.7691 80.4121 30.3531 80.5426 30.9351ZM95.6481 62.2272C95.3427 60.9594 95.087 59.6903 94.8638 58.4492C94.6531 58.4342 94.4899 58.3657 94.4423 58.2209C93.8518 56.4291 92.3549 53.9365 90.2558 55.4477C89.8898 55.7113 89.369 55.8608 88.9188 55.8059C88.5502 55.7616 88.464 55.4914 88.7746 55.2676C90.0392 54.3567 91.8962 53.5339 93.4688 54.1577C93.7689 54.2771 94.0351 54.435 94.2844 54.6119C94.1996 53.8387 94.1389 53.0693 94.1095 52.302C94.0997 52.2883 94.0867 52.2779 94.0788 52.2622C93.5249 51.2462 92.6688 50.1729 91.6496 50.1624C91.4173 50.3093 91.1178 50.3928 90.8398 50.3836C90.7015 50.4606 90.5618 50.552 90.4196 50.6747C89.0056 51.8955 88.034 53.669 87.5838 55.4719C87.1368 57.261 86.9776 59.5415 88.265 61.0501C90.0855 63.1845 93.2006 62.7923 95.6481 62.2272ZM108.992 77.1383C108.055 76.6521 107.007 76.2261 105.939 75.785C106.061 80.1332 106.598 84.4424 105.915 88.777C105.904 88.8468 105.876 88.9107 105.842 88.9721C105.889 89.036 105.857 89.113 105.77 89.1946C106.641 90.9726 108.1 92.3396 109.915 93.3282C110.575 93.6877 111.276 94.0022 112.018 94.2632C119.205 96.7864 129.732 94.7461 133.454 89.4804C133.3 89.4112 133.187 89.2905 133.157 89.1065C132.441 84.5644 133.04 80.0536 133.134 75.4952C132.045 75.9644 130.952 76.4257 129.909 76.9673C129.276 77.2955 127.599 76.9653 128.728 76.3787C131.578 74.8995 135.989 73.8726 137.856 71.2618C140.711 67.2691 141.43 61.6746 141.578 56.8858C141.868 47.4715 141.124 37.9769 141.048 28.5411C140.978 28.6129 140.905 28.6866 140.834 28.7577C136.274 33.2737 129.973 35.0257 123.652 35.1999C120.316 35.2912 116.851 35.1314 113.653 34.0854C109.775 32.8169 104.666 29.2132 100.665 31.709C100.533 35.4844 99.5272 38.5949 97.9789 42.0251C95.9032 46.6213 95.5711 51.3376 96.4716 56.2875C97.282 60.7415 98.1674 67.3403 101.199 70.9153C103.557 73.6963 107.355 74.5785 110.493 76.2071C111.293 76.6221 109.556 77.4312 108.992 77.1383ZM100.999 89.791C100.638 90.0356 100.31 90.3776 100.03 90.8624C99.2714 92.1772 98.97 93.6153 98.9426 95.1252C98.9426 95.1323 98.9393 95.1382 98.9387 95.1447C99.0392 95.3438 98.9798 95.5904 98.6326 95.839C88.5665 103.035 74.614 106.157 67.272 116.773C63.7759 121.826 63.6715 128.45 63.5214 134.376C63.3727 140.229 63.3524 146.109 62.0761 151.847C68.1862 149.11 74.0972 145.863 80.0885 142.915C80.1244 142.436 81.0366 142.071 81.5769 142.195C82.4754 141.852 83.3719 142.734 82.4323 143.285C85.5004 148.508 87.6354 154.308 91.1106 159.277C92.1918 157.485 93.3265 155.738 94.5773 154.085C94.1415 153.793 94.8266 153.341 95.4602 153.195C96.0018 153.002 96.7737 153.091 96.7534 153.512C96.7704 153.522 96.7874 153.529 96.8043 153.538C98.3064 147.727 101.465 142.044 107.503 140.056C112.203 138.509 117.218 138.825 121.877 140.406C124.196 141.193 126.581 142.265 128.592 143.701C130.819 139.942 134.682 138.316 138.623 136.479C141.693 135.047 143.807 133.446 143.873 129.759C143.92 127.175 143.506 124.449 141.935 122.323C141.725 122.038 141.913 121.665 142.178 121.493C146.429 118.737 153.468 119.715 156.718 123.674C157.094 124.134 156.398 124.624 156.021 124.719C151.428 125.872 151.082 131.494 150.389 135.468C149.814 138.765 154.272 140.097 156.116 142.278C157.526 143.943 158.64 145.928 159.318 148.045C160.808 145.563 163.262 143.677 166.083 142.778C166.284 142.714 166.486 142.656 166.689 142.601C168.536 142.115 170.514 142.044 172.465 142.499C174.59 142.993 177.839 143.723 179.144 145.627C180.431 147.505 180.697 149.914 180.783 152.138C180.96 156.781 180.135 161.558 180.635 166.183C181.03 166.169 181.421 166.173 181.807 166.202C186.557 166.57 185.76 172.816 185.915 176.225C185.927 176.456 185.805 176.644 185.622 176.78C186.612 176.78 187.602 176.78 188.593 176.78C188.933 176.78 189.274 176.78 189.613 176.78C189.621 176.777 189.627 176.774 189.635 176.771C189.9 176.66 190.197 176.6 190.454 176.581C192.093 176.46 193.259 177.578 193.295 179.232C193.317 180.233 193.009 181.061 192.416 181.66C194.615 181.292 196.523 181.958 198.104 183.224C198.165 183.271 198.225 183.323 198.284 183.374C201.131 185.776 202.874 190.137 203.281 193.84C203.328 193.906 203.365 193.981 203.38 194.074C204.148 198.848 202.273 207.285 196.783 208.603C196.435 211.691 194.884 214.889 192.45 216.849C194.407 222.185 184.186 223.902 180.778 221.499C180.282 221.15 179.616 220.574 178.908 219.861C178.446 220.743 177.984 221.623 177.523 222.505C192.031 233.139 204.923 214.481 206.646 201.37C207.464 195.136 207.441 187.268 203.037 182.242C200.34 179.165 196.809 177.388 193.014 176.288C192.565 176.404 192.087 176.388 191.976 176.109C191.962 176.072 191.949 176.033 191.935 175.995C190.405 175.605 188.842 175.313 187.28 175.082C186.008 174.894 187.051 173.628 187.948 173.761C189.063 173.925 190.21 174.126 191.363 174.37C189.639 168.987 189.274 162.779 188.438 157.323C187.102 148.605 185.884 139.867 184.501 131.156C184.048 128.296 183.649 125.397 182.968 122.579C181.68 117.256 177.702 112.129 173.509 108.715C163.872 100.871 149.818 102.247 139.667 95.1121C139.179 95.1793 138.722 95.039 138.803 94.6025C139.043 93.3145 139.239 91.5867 138.253 90.5309C137.438 89.6572 136.235 89.6076 135.121 89.7844C133.575 91.924 131.287 93.4365 128.729 94.4583C127.822 94.8198 126.889 95.1258 125.939 95.3712C123.689 95.9526 121.376 96.2259 119.288 96.271C113.621 96.3943 106.474 95.2974 103.804 89.5652C103.528 89.481 103.255 89.4131 102.992 89.3773C102.256 89.2761 101.582 89.3949 100.999 89.791ZM135.881 215.817C127.163 215.817 118.444 215.817 109.725 215.817C109.917 218.029 110.11 220.24 110.302 222.452C118.636 222.452 126.97 222.452 135.304 222.452C135.497 220.241 135.689 218.029 135.881 215.817ZM135.947 215.057C136.404 209.8 136.861 204.544 137.319 199.288C127.642 199.288 117.965 199.288 108.288 199.288C108.746 204.544 109.203 209.8 109.66 215.057C118.422 215.057 127.186 215.057 135.947 215.057ZM162.149 146.199C161.073 147.624 160.312 149.227 159.949 150.917C160.068 151.91 160.085 152.912 159.986 153.908C161.426 153.395 162.872 153.011 164.223 153.012C170.551 153.015 171.226 163.332 172.892 167.55C172.965 167.734 172.709 167.939 172.362 168.084C174.363 167.496 176.561 166.739 178.722 166.38C178.433 163.113 178.86 159.766 178.92 156.505C178.975 153.484 179.345 149.182 177.532 146.537C176.611 145.192 175.207 144.248 173.607 143.671C173.026 143.461 172.424 143.3 171.804 143.191C168.199 142.551 164.132 143.572 162.149 146.199ZM145.824 166.647C151.354 166.024 154.073 168.91 155.905 173.21C161.138 171.549 166.334 169.754 171.63 168.295C171.684 168.281 171.74 168.263 171.795 168.248C171.427 168.309 171.085 168.271 171.001 168.058C169.791 164.997 169.376 161.66 168.065 158.637C167.4 157.106 166.513 155.6 165.138 154.59C163.522 153.403 161.512 154.4 159.797 155.057C159.564 155.525 158.739 155.751 158.266 155.587C151.515 157.861 144.692 160.22 137.539 160.59C138.677 162.919 139.765 165.271 141.128 167.479C142.69 167.122 144.257 166.823 145.824 166.647ZM133.607 153.211C133.167 159.947 127.553 166.078 124.163 171.571C124.112 171.654 124.018 171.725 123.903 171.788C127.107 170.947 130.32 170.136 133.544 169.374C135.409 168.933 137.295 168.417 139.192 167.943C137.736 165.534 136.58 162.967 135.33 160.444C135.059 159.897 136.486 159.371 137.052 159.752C137.068 159.75 137.088 159.747 137.103 159.746C143.145 159.63 148.962 157.901 154.651 155.995C155.657 155.657 156.754 155.191 157.886 154.726C157.743 153.541 157.8 152.397 158.029 151.314C157.913 150.291 157.696 149.283 157.38 148.349C156.634 146.152 155.48 144.043 153.762 142.446C152.343 141.127 149.925 140.099 148.883 138.399C147.479 136.105 149.144 131.945 149.781 129.607C150.563 126.74 151.859 124.875 154.389 123.869C151.848 121.475 147.14 120.444 144.004 122.005C146.076 125.337 147.161 132.222 143.86 134.944C139.329 138.681 132.725 139.067 129.935 144.772C132.292 146.869 133.842 149.62 133.607 153.211ZM156.871 176.778C165.974 176.778 175.076 176.778 184.18 176.778C184.075 176.672 184.004 176.532 183.997 176.348C183.891 174.054 184.16 171.25 183.281 169.078C182.43 166.976 179.867 167.662 178.117 168.074C170.763 169.804 163.619 172.255 156.427 174.534C156.631 175.091 156.828 175.66 157.015 176.248C157.077 176.449 157.011 176.63 156.871 176.778ZM111.304 139.933C110.628 140.005 109.958 140.124 109.299 140.299C109.236 140.316 109.172 140.329 109.109 140.346C102.82 142.126 99.8933 148.026 98.4982 153.953C98.4721 154.063 98.371 154.16 98.2301 154.246C105.866 157.984 113.894 160.878 121.368 164.951C121.558 165.055 121.634 165.243 121.496 165.43C119.501 168.159 117.751 171.04 115.996 173.922C118.316 173.283 120.638 172.652 122.965 172.037C122.54 172.078 122.191 172.023 122.289 171.865C125.35 166.903 129.531 162.06 131.152 156.368C132.418 151.923 131.101 148.262 128.274 145.555C128.098 145.497 127.972 145.389 127.933 145.235C126.603 144.047 124.977 143.053 123.145 142.276C119.549 140.753 115.306 139.505 111.304 139.933ZM80.2268 176.778C105.196 176.778 130.165 176.778 155.134 176.778C155.131 176.77 155.126 176.764 155.123 176.756C154.247 174.002 153.17 170.068 150.4 168.562C148.011 167.263 145.094 167.948 142.592 168.53C142.067 168.652 141.545 168.78 141.02 168.902C140.809 168.997 140.568 169.056 140.347 169.062C131.871 171.057 123.43 173.178 115.035 175.497C114.87 175.767 114.704 176.037 114.537 176.306C114.211 176.834 112.308 177.02 112.776 176.264C114.622 173.281 116.344 170.204 118.353 167.325C119.667 165.443 118.563 165.128 116.871 164.294C115.502 163.618 114.127 162.957 112.735 162.331C107.126 159.811 101.416 157.52 95.9163 154.769C94.5003 156.664 93.2358 158.668 92.0195 160.704C92.0032 160.813 91.938 160.916 91.8368 161.01C88.4719 166.666 85.3927 172.504 80.2268 176.778ZM55.202 177.538C55.0637 177.615 54.9175 177.672 54.8085 177.711C54.0464 177.977 53.4663 179.162 53.3528 179.895C53.1936 180.916 53.6484 181.466 54.6839 181.448C55.003 181.442 55.358 181.677 55.2705 181.999C100.267 181.999 145.265 181.999 190.262 181.999C190.412 181.94 190.552 181.9 190.619 181.883C191.342 181.702 191.477 179.992 191.372 179.369C191.229 178.531 190.749 177.43 189.767 177.418C189.561 177.489 189.374 177.539 189.277 177.539C144.585 177.538 99.8933 177.538 55.202 177.538ZM178.987 189.379C181.028 188.536 183.097 188.713 185.081 189.357C185.683 187.224 186.286 185.092 186.889 182.96C186.909 182.888 186.963 182.82 187.038 182.758C180.574 182.758 174.11 182.758 167.647 182.758C166.59 188.014 165.533 193.27 164.476 198.527C168.19 198.527 171.904 198.527 175.618 198.527C175.993 197.648 176.887 196.944 178.445 196.501C176.822 194.166 175.61 190.776 178.987 189.379ZM63.4131 198.527C69.21 198.527 75.0068 198.527 80.8036 198.527C79.7675 193.374 78.7306 188.219 77.6945 183.066C77.6729 182.957 77.7343 182.854 77.8439 182.758C71.1224 182.758 64.401 182.758 57.6796 182.758C58.443 185.339 59.4576 187.834 60.2067 190.419C60.2517 190.573 60.2015 190.718 60.0977 190.845C60.9395 190.794 61.7499 190.887 62.4839 191.19C66.1791 192.717 65.2773 195.563 62.7306 198.527C62.8265 198.527 62.9231 198.527 63.019 198.527C63.1593 198.501 63.282 198.493 63.3661 198.513C63.3831 198.518 63.3961 198.524 63.4131 198.527ZM82.7957 198.527C90.6258 198.527 98.4565 198.527 106.287 198.527C105.839 193.374 105.391 188.219 104.942 183.066C104.933 182.954 104.995 182.85 105.102 182.758C96.6092 182.758 88.1169 182.758 79.6252 182.758C80.6816 188.015 81.7393 193.272 82.7957 198.527ZM108.222 198.527C117.943 198.527 127.663 198.527 137.384 198.527C137.834 193.339 138.287 188.151 138.737 182.963C138.743 182.891 138.79 182.822 138.86 182.758C128.19 182.758 117.52 182.758 106.85 182.758C107.308 188.015 107.764 193.272 108.222 198.527ZM139.231 198.527C147.043 198.527 154.852 198.527 162.662 198.527C163.706 193.339 164.748 188.151 165.792 182.963C165.806 182.89 165.859 182.821 165.932 182.758C157.49 182.758 149.046 182.758 140.604 182.758C140.146 188.015 139.689 193.272 139.231 198.527ZM188.574 184.121C188.754 183.567 189.106 183.075 189.681 182.666C189.509 182.722 189.361 182.759 189.277 182.759C189.098 182.759 188.916 182.759 188.736 182.759C188.633 183.126 188.53 183.494 188.425 183.861C187.848 185.901 187.271 187.942 186.695 189.982C187.434 190.312 188.157 190.687 188.857 191.08C190.125 191.794 191.36 192.565 192.568 193.377C190.481 190.347 187.763 186.612 188.574 184.121ZM46.9987 198.387C46.9178 198.552 46.7338 198.687 46.5093 198.786C45.3883 199.705 44.4703 200.502 43.8765 201.008C43.5333 201.3 41.7624 201.498 42.1656 201.154C43.1268 200.334 44.1075 199.535 45.1045 198.755C45.0895 198.706 45.0895 198.648 45.1182 198.579C46.3142 195.704 53.8265 187.257 50.6012 184.285C44.3626 178.537 39.8029 194.171 40.0515 198.217C40.06 198.358 40.0026 198.485 39.9047 198.597C40.0489 202.981 41.7676 209.179 45.9528 209.508C46.3299 209.537 46.5687 209.789 46.5909 210.15C46.7749 213.205 48.3442 216.561 50.8752 218.357C51.0919 218.51 51.1774 218.794 51.0573 219.036C49.6609 221.852 53.7058 223.248 55.8415 223.421C57.6339 223.566 58.9526 223.119 60.3294 221.948C61.1581 221.244 64.664 217.541 64.8708 215.423C64.8088 215.204 64.7475 214.986 64.6855 214.767C64.6711 214.717 64.6914 214.664 64.7357 214.612C64.5511 214.285 64.185 214.056 63.5802 213.97C63.4294 213.949 63.312 213.909 63.22 213.859C61.4073 215.935 58.8665 217.751 57.2378 218.97C56.8822 219.237 54.9873 219.452 55.7756 218.862C58.8776 216.538 65.7119 211.811 62.8037 207.479C59.9405 210.714 56.0874 213.759 54.6298 214.63C54.2493 214.858 52.3329 214.999 53.1629 214.503C55.9968 212.81 69.623 201.39 61.9887 199.347C58.1494 203.392 51.7718 207.45 50.2697 208.502C49.9409 208.733 48.0473 208.994 48.8231 208.451C51.8253 206.349 54.9808 204.472 57.7716 202.078C58.5852 201.38 59.7754 200.379 60.807 199.228C60.7776 199.177 60.8586 199.099 60.9982 199.012C62.4578 197.322 63.5123 195.336 62.5211 193.505C59.9685 188.789 51.8834 194.438 46.9987 198.387ZM66.8003 215.057C72.5756 215.057 78.3515 215.057 84.1268 215.057C83.0698 209.8 82.0127 204.544 80.9557 199.288C75.6926 199.288 70.4295 199.288 65.1657 199.288C67.1122 200.715 66.0623 203.358 63.971 206.07C66.0146 208.209 65.6147 210.469 64.2255 212.553C66.1249 212.828 66.8251 213.749 66.7748 214.969C66.7839 214.999 66.7924 215.028 66.8003 215.057ZM86.1196 215.057C93.3213 215.057 100.523 215.057 107.725 215.057C107.267 209.8 106.81 204.544 106.353 199.288C98.5517 199.288 90.7504 199.288 82.9484 199.288C84.0055 204.544 85.0625 209.801 86.1196 215.057ZM137.795 215.057C144.976 215.057 152.158 215.057 159.338 215.057C160.395 209.8 161.452 204.544 162.509 199.288C154.727 199.288 146.946 199.288 139.166 199.288C138.709 204.544 138.251 209.801 137.795 215.057ZM161.151 215.057C165.883 215.057 170.614 215.057 175.346 215.057C174.487 213.213 174.456 211.514 176.338 210.731C175.081 208.95 174.791 207.007 176.749 205.052C176.904 204.897 177.372 204.77 177.792 204.72C176.266 202.79 175.246 200.85 175.424 199.288C171.723 199.288 168.022 199.288 164.321 199.288C163.265 204.544 162.208 209.801 161.151 215.057ZM181.275 219.672C182.507 220.632 183.775 221.428 185.406 221.296C187.382 221.137 191.98 220.159 190.499 217.168C190.336 216.839 190.42 216.512 190.73 216.291C193.267 214.491 194.738 211.154 194.921 208.111C194.951 207.629 195.551 207.361 195.959 207.329C199.942 207.017 201.537 200.897 201.617 196.757C201.511 196.68 201.448 196.566 201.458 196.409C201.637 193.494 200.701 190.319 199.3 187.779C198.562 186.439 197.661 185.048 196.447 184.084C195.087 183.002 192.189 181.715 190.705 183.365C187.973 186.405 195.212 193.248 196.392 196.047C196.409 196.088 196.417 196.131 196.417 196.172C197.424 196.956 198.413 197.763 199.382 198.588C199.664 198.829 197.987 199.561 197.601 199.23C196.087 197.939 190.219 193.071 185.417 190.756C185.022 190.789 184.697 190.715 184.761 190.488C184.764 190.477 184.767 190.468 184.77 190.458C182.045 189.257 179.76 189.004 178.979 190.912C177.509 194.496 181.929 198.051 184.353 199.989C187.074 202.162 190.011 203.99 192.857 205.983C193.122 206.168 191.509 206.929 191.075 206.625C187.082 203.83 182.65 201.37 179.375 197.687C179.217 197.51 179.057 197.318 178.896 197.112C172.398 198.849 186.062 210.599 188.505 212.058C188.835 212.255 187.224 213.024 186.73 212.729C184.999 211.694 180.968 208.534 178.209 205.235C174.335 209.661 182.93 214.229 185.895 216.412C186.226 216.655 184.565 217.404 184.117 217.076C182.445 215.846 179.317 214.008 177.28 211.862C174.664 212.657 180.509 219.076 181.275 219.672ZM58.9213 176.468C58.9617 176.538 58.809 176.66 58.5748 176.779C65.1749 176.779 71.7743 176.779 78.3744 176.779C78.4057 176.661 78.5029 176.527 78.6882 176.379C83.766 172.317 86.8184 166.587 90.0738 161.025C86.1835 155.873 83.9748 149.678 80.7273 144.129C70.8223 149.011 61.128 154.653 50.4094 157.535C52.2847 164.259 55.48 170.418 58.9213 176.468ZM60.4397 227.673C62.9152 226.843 65.1051 225.232 67.0175 223.02C66.5458 221.351 66.0747 219.684 65.6036 218.015C63.663 221.081 59.827 224.356 57.949 224.776C55.4075 225.345 49.7986 224.394 48.9328 221.391C48.7468 220.748 48.6293 220.033 48.9458 219.394C49.0704 219.142 47.2884 217.393 47.1488 217.179C45.8653 215.217 44.9773 213.16 44.7287 210.846C39.1524 209.826 37.3697 200.756 38.1142 196.145C38.1325 196.033 38.1801 195.932 38.2486 195.842C38.9057 189.76 42.471 182 48.9027 182.161C57.3344 182.371 50.6893 191.974 47.9227 196.661C49.507 195.544 51.1376 194.494 52.8249 193.545C53.1022 193.39 53.4037 193.223 53.7202 193.053C54.1665 192.814 54.6461 192.568 55.1492 192.329C56.1821 191.84 57.3089 191.39 58.4345 191.112C58.3823 191.061 58.3392 191.001 58.3171 190.924C57.5478 188.273 56.4959 185.717 55.7273 183.065C55.6959 182.956 55.7129 182.854 55.7592 182.758C55.1341 182.758 54.509 182.758 53.8833 182.758C53.6582 182.758 53.5949 182.712 53.6301 182.644C52.1698 182.529 51.0599 181.542 51.4847 179.927C51.6804 179.183 52.0347 178.52 52.5124 177.966C47.537 178.982 42.5245 180.683 39.0825 184.338C34.2671 189.452 33.9278 196.719 35.0233 203.347C36.1587 210.213 38.7537 217.632 43.9776 222.495C45.8823 224.268 48.0773 225.902 50.4942 226.981C51.4997 227.43 52.5398 227.794 53.6203 228.014C56.0972 228.522 58.368 228.369 60.4397 227.673ZM85.6139 222.452C85.1689 220.24 84.7245 218.029 84.2795 215.817C78.5251 215.817 72.77 215.817 67.0149 215.817C67.64 218.029 68.2651 220.24 68.8902 222.452C74.4652 222.452 80.0396 222.452 85.6139 222.452ZM108.367 222.452C108.175 220.24 107.983 218.029 107.791 215.817C100.618 215.817 93.4452 215.817 86.2723 215.817C86.7173 218.029 87.1616 220.24 87.6066 222.452C94.5271 222.452 101.448 222.452 108.367 222.452ZM137.151 222.452C144.051 222.452 150.95 222.452 157.851 222.452C158.296 220.24 158.74 218.029 159.185 215.817C152.033 215.817 144.881 215.817 137.729 215.817C137.536 218.029 137.344 220.241 137.151 222.452ZM159.664 222.452C165.068 222.452 170.472 222.452 175.877 222.452C176.379 221.496 176.879 220.54 177.381 219.584C177.505 219.346 177.911 219.218 178.232 219.147C177.311 218.141 176.391 216.962 175.731 215.797C175.676 215.809 175.628 215.816 175.593 215.816C170.728 215.816 165.864 215.816 160.999 215.816C160.553 218.029 160.109 220.241 159.664 222.452ZM193.993 62.3303C193.993 58.6085 193.993 54.8872 193.993 51.1653C197.544 51.1653 201.097 51.1653 204.647 51.1653C205.368 51.1653 206.655 50.0711 205.377 50.0711C201.608 50.0711 197.837 50.0711 194.067 50.0711C193.533 50.0711 192.691 50.6707 192.808 50.982C192.427 51.0968 192.101 51.2861 192.101 51.5262C192.101 55.2963 192.101 59.0665 192.101 62.836C192.102 63.1995 193.993 62.9111 193.993 62.3303ZM204.722 51.5268C204.722 55.2676 204.722 59.0084 204.722 62.7492C201.176 62.7492 197.629 62.7492 194.083 62.7492C193.439 62.7492 192.048 63.7273 193.322 63.7273C197.092 63.7273 200.862 63.7273 204.632 63.7273C205.128 63.7273 206.062 63.1486 205.885 62.8817C206.276 62.7675 206.613 62.5757 206.613 62.3303C206.613 58.5602 206.613 54.79 206.613 51.0205C206.613 50.657 204.722 50.9468 204.722 51.5268ZM212.981 57.6467C225.161 57.6467 237.341 57.6467 249.521 57.6467C250.62 57.6467 250.956 56.2118 249.675 56.2118C237.495 56.2118 225.315 56.2118 213.135 56.2118C212.036 56.2112 211.7 57.6467 212.981 57.6467ZM197.944 59.9741C198.39 60.2195 199.289 59.9206 199.577 59.537C201.009 57.6336 202.574 55.6865 203.125 53.3186C203.275 52.6759 201.38 52.9806 201.24 53.579C200.812 55.419 199.75 56.9785 198.631 58.4753C198.118 57.9827 197.738 57.3759 197.474 56.6757C197.242 56.0617 195.373 56.6288 195.583 57.1821C196.046 58.4088 196.791 59.3379 197.944 59.9741ZM193.993 84.1592C193.993 80.4373 193.993 76.7161 193.993 72.9949C197.544 72.9949 201.097 72.9949 204.647 72.9949C205.368 72.9949 206.655 71.9006 205.377 71.9006C201.608 71.9006 197.837 71.9006 194.067 71.9006C193.534 71.9006 192.692 72.4996 192.808 72.8115C192.427 72.9263 192.101 73.1156 192.101 73.3563C192.101 77.1265 192.101 80.8967 192.101 84.6662C192.102 85.029 193.993 84.7399 193.993 84.1592ZM206.613 72.8493C206.613 72.4866 204.722 72.7756 204.722 73.3557C204.722 77.0965 204.722 80.8379 204.722 84.5781C201.176 84.5781 197.629 84.5781 194.083 84.5781C193.439 84.5781 192.048 85.5562 193.322 85.5562C197.092 85.5562 200.862 85.5562 204.632 85.5562C205.128 85.5562 206.063 84.9768 205.885 84.7106C206.275 84.5964 206.613 84.4045 206.613 84.1592C206.613 80.389 206.613 76.6189 206.613 72.8493ZM249.676 78.04C237.495 78.04 225.316 78.04 213.135 78.04C212.035 78.04 211.7 79.4749 212.981 79.4749C225.162 79.4749 237.341 79.4749 249.522 79.4749C250.62 79.4749 250.956 78.04 249.676 78.04ZM197.944 81.803C198.39 82.0483 199.289 81.7495 199.577 81.3658C201.009 79.4631 202.574 77.5154 203.125 75.1475C203.275 74.5048 201.38 74.8095 201.24 75.4078C200.812 77.2479 199.75 78.8074 198.631 80.3042C198.117 79.8116 197.738 79.2054 197.474 78.5046C197.242 77.8912 195.373 78.4576 195.583 79.0109C196.046 80.237 196.79 81.1675 197.944 81.803ZM193.993 105.989C193.993 102.267 193.993 98.5456 193.993 94.8237C197.544 94.8237 201.097 94.8237 204.647 94.8237C205.368 94.8237 206.655 93.7295 205.377 93.7295C201.608 93.7295 197.837 93.7295 194.067 93.7295C193.533 93.7295 192.691 94.3291 192.808 94.6404C192.427 94.7552 192.101 94.9444 192.101 95.1845C192.101 98.9547 192.101 102.725 192.101 106.494C192.102 106.858 193.993 106.569 193.993 105.989ZM206.613 105.989C206.613 102.219 206.613 98.4484 206.613 94.6789C206.613 94.3161 204.722 94.6051 204.722 95.1852C204.722 98.926 204.722 102.667 204.722 106.408C201.176 106.408 197.629 106.408 194.083 106.408C193.439 106.408 192.048 107.386 193.322 107.386C197.092 107.386 200.862 107.386 204.632 107.386C205.128 107.386 206.063 106.807 205.885 106.541C206.275 106.427 206.613 106.234 206.613 105.989ZM249.676 99.8702C237.495 99.8702 225.316 99.8702 213.135 99.8702C212.035 99.8702 211.7 101.305 212.981 101.305C225.162 101.305 237.341 101.305 249.522 101.305C250.62 101.305 250.956 99.8702 249.676 99.8702ZM197.944 103.633C198.39 103.878 199.289 103.579 199.577 103.195C201.009 101.292 202.574 99.3449 203.125 96.977C203.275 96.3343 201.38 96.639 201.24 97.2373C200.812 99.0774 199.75 100.637 198.631 102.134C198.118 101.641 197.738 101.035 197.474 100.334C197.242 99.7208 195.373 100.287 195.583 100.84C196.046 102.067 196.791 102.996 197.944 103.633ZM2.39096 62.3303C2.39096 58.6085 2.39096 54.8872 2.39096 51.1653C5.94254 51.1653 9.49411 51.1653 13.0457 51.1653C13.7661 51.1653 15.0541 50.0711 13.7752 50.0711C10.005 50.0711 6.23551 50.0711 2.46534 50.0711C1.93159 50.0711 1.08856 50.6707 1.20666 50.982C0.826252 51.0968 0.5 51.2861 0.5 51.5262C0.5 55.2963 0.5 59.0665 0.5 62.836C0.5 63.1995 2.39096 62.9111 2.39096 62.3303ZM13.1201 51.5268C13.1201 55.2676 13.1201 59.0084 13.1201 62.7492C9.57372 62.7492 6.02736 62.7492 2.481 62.7492C1.83698 62.7492 0.445844 63.7273 1.72018 63.7273C5.49035 63.7273 9.25987 63.7273 13.03 63.7273C13.5259 63.7273 14.4603 63.1486 14.2835 62.8817C14.673 62.7675 15.011 62.5757 15.011 62.3303C15.011 58.5602 15.011 54.79 15.011 51.0205C15.0104 50.657 13.1201 50.9468 13.1201 51.5268ZM21.3788 57.6467C33.5591 57.6467 45.7387 57.6467 57.919 57.6467C59.0185 57.6467 59.3539 56.2118 58.073 56.2118C45.8927 56.2118 33.7131 56.2118 21.5328 56.2118C20.4333 56.2112 20.0979 57.6467 21.3788 57.6467ZM9.63831 53.579C9.21027 55.419 8.14734 56.9785 7.02895 58.4753C6.51543 57.9827 6.13568 57.3759 5.87076 56.6757C5.63847 56.0617 3.77035 56.6288 3.98045 57.1821C4.44439 58.4088 5.18889 59.3379 6.34317 59.9741C6.78883 60.2195 7.68733 59.9206 7.97574 59.537C9.40733 57.6336 10.9727 55.6865 11.5234 53.3186C11.6722 52.6752 9.7773 52.98 9.63831 53.579ZM2.39096 84.1592C2.39096 80.4373 2.39096 76.7161 2.39096 72.9949C5.94254 72.9949 9.49411 72.9949 13.0457 72.9949C13.7661 72.9949 15.0541 71.9006 13.7752 71.9006C10.005 71.9006 6.23551 71.9006 2.46534 71.9006C1.93159 71.9006 1.08986 72.4996 1.20666 72.8115C0.826252 72.9263 0.5 73.1156 0.5 73.3563C0.5 77.1265 0.5 80.8967 0.5 84.6662C0.5 85.029 2.39096 84.7399 2.39096 84.1592ZM13.1201 73.3557C13.1201 77.0965 13.1201 80.8379 13.1201 84.5781C9.57372 84.5781 6.02736 84.5781 2.481 84.5781C1.83698 84.5781 0.445844 85.5562 1.72018 85.5562C5.49035 85.5562 9.25987 85.5562 13.03 85.5562C13.5266 85.5562 14.461 84.9768 14.2828 84.7106C14.6724 84.5964 15.0104 84.4045 15.0104 84.1592C15.0104 80.389 15.0104 76.6189 15.0104 72.8493C15.0104 72.4866 13.1201 72.7756 13.1201 73.3557ZM21.3788 79.4749C33.5591 79.4749 45.7387 79.4749 57.919 79.4749C59.0185 79.4749 59.3539 78.04 58.073 78.04C45.8927 78.04 33.7131 78.04 21.5328 78.04C20.4333 78.04 20.0979 79.4749 21.3788 79.4749ZM9.63831 75.4078C9.21027 77.2479 8.14734 78.8074 7.02895 80.3042C6.51543 79.8116 6.13568 79.2054 5.87076 78.5046C5.63847 77.8912 3.77035 78.4576 3.98045 79.0109C4.44439 80.237 5.18824 81.1675 6.34317 81.803C6.78883 82.0483 7.68668 81.7495 7.97574 81.3658C9.40798 79.4631 10.9727 77.5154 11.5234 75.1475C11.6722 74.5041 9.7773 74.8088 9.63831 75.4078ZM2.39096 105.989C2.39096 102.267 2.39096 98.5456 2.39096 94.8237C5.94254 94.8237 9.49411 94.8237 13.0457 94.8237C13.7661 94.8237 15.0541 93.7295 13.7752 93.7295C10.005 93.7295 6.23551 93.7295 2.46534 93.7295C1.93159 93.7295 1.08856 94.3291 1.20666 94.6404C0.826252 94.7552 0.5 94.9444 0.5 95.1845C0.5 98.9547 0.5 102.725 0.5 106.494C0.5 106.858 2.39096 106.569 2.39096 105.989ZM13.1201 95.1852C13.1201 98.926 13.1201 102.667 13.1201 106.408C9.57372 106.408 6.02736 106.408 2.481 106.408C1.83698 106.408 0.445844 107.386 1.72018 107.386C5.49035 107.386 9.25987 107.386 13.03 107.386C13.5266 107.386 14.461 106.807 14.2828 106.541C14.6724 106.427 15.0104 106.235 15.0104 105.989C15.0104 102.219 15.0104 98.449 15.0104 94.6795C15.0104 94.3154 13.1201 94.6051 13.1201 95.1852ZM58.073 99.8702C45.8927 99.8702 33.7131 99.8702 21.5328 99.8702C20.4333 99.8702 20.0979 101.305 21.3788 101.305C33.5591 101.305 45.7387 101.305 57.919 101.305C59.0178 101.305 59.3539 99.8702 58.073 99.8702ZM9.63831 97.2373C9.21027 99.0774 8.14734 100.637 7.02895 102.134C6.51543 101.641 6.13568 101.035 5.87076 100.334C5.63847 99.7208 3.77035 100.287 3.98045 100.84C4.44439 102.067 5.18889 102.996 6.34317 103.633C6.78883 103.878 7.68733 103.579 7.97574 103.195C9.40733 101.292 10.9727 99.3449 11.5234 96.977C11.6722 96.3336 9.7773 96.639 9.63831 97.2373Z" fill="#E6E6CF"/>
</svg>
